HIERARCHY
ROOT Hips
{
	OFFSET 0.000000 0.000000 0.000000
	CHANNELS 6 Xposition Yposition Zposition Zrotation Yrotation Xrotation 
	JOINT LHipJoint
	{
		OFFSET 0.000000 0.000000 0.000000
		CHANNELS 3 Zrotation Yrotation Xrotation
		JOINT LeftUpLeg
		{
			OFFSET 1.363060 -1.794630 0.839290
			CHANNELS 3 Zrotation Yrotation Xrotation
			JOINT LeftLeg
			{
				OFFSET 2.448110 -6.726130 0.000000
				CHANNELS 3 Zrotation Yrotation Xrotation
				JOINT LeftFoot
				{
					OFFSET 2.562200 -7.039590 0.000000
					CHANNELS 3 Zrotation Yrotation Xrotation
					JOINT LeftToeBase
					{
						OFFSET 0.157640 -0.433110 2.322550
						CHANNELS 3 Zrotation Yrotation Xrotation
						End Site
						{
							OFFSET 0.000000 0.000000 0.000000
						}
					}
				}
			}
		}
	}
	JOINT RHipJoint
	{
		OFFSET 0.000000 0.000000 0.000000
		CHANNELS 3 Zrotation Yrotation Xrotation
		JOINT RightUpLeg
		{
			OFFSET -1.305520 -1.794630 0.839290
			CHANNELS 3 Zrotation Yrotation Xrotation
			JOINT RightLeg
			{
				OFFSET -2.542530 -6.985550 0.000000
				CHANNELS 3 Zrotation Yrotation Xrotation
				JOINT RightFoot
				{
					OFFSET -2.568260 -7.056230 0.000000
					CHANNELS 3 Zrotation Yrotation Xrotation
					JOINT RightToeBase
					{
						OFFSET -0.164730 -0.452590 2.363150
						CHANNELS 3 Zrotation Yrotation Xrotation
						End Site
						{
							OFFSET 0.000000 0.000000 0.000000
						}
					}
				}
			}
		}
	}
	JOINT LowerBack
	{
		OFFSET 0.000000 0.000000 0.000000
		CHANNELS 3 Zrotation Yrotation Xrotation
		JOINT Spine
		{
			OFFSET 0.028270 2.035590 -0.193380
			CHANNELS 3 Zrotation Yrotation Xrotation
			JOINT Spine1
			{
				OFFSET 0.056720 2.048850 -0.042750
				CHANNELS 3 Zrotation Yrotation Xrotation
				JOINT Neck
				{
					OFFSET 0.000000 0.000000 0.000000
					CHANNELS 3 Zrotation Yrotation Xrotation
					JOINT Neck1
					{
						OFFSET -0.054170 1.746240 0.172020
						CHANNELS 3 Zrotation Yrotation Xrotation
						JOINT Head
						{
							OFFSET 0.104070 1.761360 -0.123970
							CHANNELS 3 Zrotation Yrotation Xrotation
							End Site
							{
								OFFSET 0.000000 0.000000 0.000000
							}
						}
					}
				}
				JOINT LeftShoulder
				{
					OFFSET 0.000000 0.000000 0.000000
					CHANNELS 3 Zrotation Yrotation Xrotation
					JOINT LeftArm
					{
						OFFSET 3.362410 1.200890 -0.311210
						CHANNELS 3 Zrotation Yrotation Xrotation
						JOINT LeftForeArm
						{
							OFFSET 4.983000 -0.000000 -0.000000
							CHANNELS 3 Zrotation Yrotation Xrotation
							JOINT LeftHand
							{
								OFFSET 3.483560 -0.000000 -0.000000
								CHANNELS 3 Zrotation Yrotation Xrotation
								JOINT LeftFingerBase
								{
									OFFSET 0.000000 0.000000 0.000000
									CHANNELS 3 Zrotation Yrotation Xrotation
									JOINT LeftHandIndex1
									{
										OFFSET 0.715260 -0.000000 -0.000000
										CHANNELS 3 Zrotation Yrotation Xrotation
										End Site
										{
											OFFSET 0.000000 0.000000 0.000000
										}
									}
								}
								JOINT LThumb
								{
									OFFSET 0.000000 0.000000 0.000000
									CHANNELS 3 Zrotation Yrotation Xrotation
									End Site
									{
										OFFSET 0.000000 0.000000 0.000000
									}
								}
							}
						}
					}
				}
				JOINT RightShoulder
				{
					OFFSET 0.000000 0.000000 0.000000
					CHANNELS 3 Zrotation Yrotation Xrotation
					JOINT RightArm
					{
						OFFSET -3.136600 1.374050 -0.404650
						CHANNELS 3 Zrotation Yrotation Xrotation
						JOINT RightForeArm
						{
							OFFSET -5.241900 -0.000000 -0.000000
							CHANNELS 3 Zrotation Yrotation Xrotation
							JOINT RightHand
							{
								OFFSET -3.444170 -0.000000 -0.000000
								CHANNELS 3 Zrotation Yrotation Xrotation
								JOINT RightFingerBase
								{
									OFFSET 0.000000 0.000000 0.000000
									CHANNELS 3 Zrotation Yrotation Xrotation
									JOINT RightHandIndex1
									{
										OFFSET -0.622530 -0.000000 -0.000000
										CHANNELS 3 Zrotation Yrotation Xrotation
										End Site
										{
											OFFSET 0.000000 0.000000 0.000000
										}
									}
								}
								JOINT RThumb
								{
									OFFSET 0.000000 0.000000 0.000000
									CHANNELS 3 Zrotation Yrotation Xrotation
									End Site
									{
										OFFSET 0.000000 0.000000 0.000000
									}
								}
							}
						}
					}
				}
			}
		}
	}
}
MOTION
Frames: 10
Frame Time: 0.008333
33.439059 17.737150 6.788385 -94.971348 -87.479086 102.413140 -2.114761 -1.029631 -0.137604 -17.639514 -4.601721 -3.147984 -0.669445 4.304672 10.748268 0.578376 -0.519128 1.095600 0.018000 -0.865600 -2.379200 1.114503 1.944073 -2.356198 16.615394 2.505168 -34.406024 -6.692342 -16.072990 48.629861 3.678019 -19.104893 -5.128649 -0.122200 -2.253400 6.206600 -1.794725 -2.000512 2.535251 1.000392 -2.487194 -5.295189 5.200475 -1.222931 -2.238400 -3.900468 -1.996177 -10.278712 1.704791 -2.470058 6.490038 0.863200 -1.452400 5.751200 4.859405 3.331230 -0.193356 -88.560052 -27.885775 16.304134 48.224011 -56.143563 -22.916975 -2.914810 1.770596 -64.001936 21.488774 46.318757 14.764300 -7.125000 0.000000 0.000000 -27.241300 73.214500 -18.575100 -2.680647 -3.879116 -1.587017 68.890451 24.126219 35.848053 -68.048677 59.588122 -43.329805 -0.455956 0.015351 -2.688554 -14.052241 -31.280851 7.180100 7.125000 0.000000 0.000000 21.246500 -60.831500 -8.415500 
33.313643 17.722903 6.796110 -94.542810 -87.587041 102.125423 -2.106647 -1.028156 -0.141835 -17.850670 -4.482391 -2.868055 -0.663594 4.314966 10.772896 0.617567 -0.741816 0.706640 0.017800 -0.862400 -2.370400 1.122655 1.970116 -2.402291 16.531808 2.662258 -34.790402 -6.064483 -15.550108 46.307180 3.798262 -19.587309 -5.051472 -0.095300 -1.991200 5.481400 -1.859913 -1.954399 2.599879 0.968021 -2.414623 -5.159074 5.160974 -1.197910 -1.802118 -3.727324 -2.183559 -11.595747 1.756575 -2.690059 6.266480 0.818200 -1.534700 5.950900 4.885182 3.389400 -0.233574 -88.874357 -29.171747 16.626106 45.594115 -55.013957 -21.039172 -2.839503 1.977945 -61.973457 20.919313 43.917821 13.640700 -7.125000 0.000000 0.000000 -23.640900 70.937500 -14.885300 -2.711937 -3.920299 -1.586709 69.190582 24.644812 35.680658 -67.134224 59.406303 -42.561464 -0.465328 0.021347 -2.899825 -15.028623 -30.847404 7.615200 7.125000 0.000000 0.000000 19.876700 -60.673900 -7.772200 
33.186723 17.708656 6.800425 -93.834770 -87.679064 101.545330 -2.111244 -1.016655 -0.108765 -17.993332 -4.366805 -2.592739 -0.658183 4.315212 10.782855 0.655533 -0.957463 0.353623 0.013300 -0.745500 -2.048900 1.136373 1.981930 -2.407572 16.460096 2.903774 -35.047306 -5.420899 -14.964190 43.865255 3.873413 -19.867134 -5.118246 -0.115400 -2.190200 6.031600 -2.004282 -2.027700 2.624377 1.012102 -2.521242 -5.254182 5.379657 -1.234847 -2.105089 -3.825754 -2.192645 -11.073670 1.814264 -2.696430 5.719699 0.861500 -1.535800 5.651700 4.921800 3.381115 -0.232649 -89.001864 -28.856945 16.851247 43.930196 -54.316697 -20.056390 -2.972608 2.098222 -60.149981 21.335031 49.692277 15.444900 -7.125000 0.000000 0.000000 -35.160500 75.600600 -25.984400 -2.708066 -3.912841 -1.594521 69.528711 24.087405 36.058750 -66.764906 59.336250 -42.246631 -0.477921 0.031159 -2.852479 -15.726278 -30.241627 7.849900 7.125000 0.000000 0.000000 18.687500 -60.281400 -7.112100 
33.056090 17.692000 6.805341 -90.354279 -87.781916 98.264994 -2.102329 -1.035583 -0.104736 -18.149311 -4.218787 -2.387096 -0.651598 4.315307 10.806193 0.706139 -1.235084 0.040282 0.011600 -0.696900 -1.915300 1.164790 1.976952 -2.411450 16.372980 3.004710 -35.230702 -4.742055 -14.293165 41.160650 3.918492 -20.058607 -4.573488 -0.136200 -2.379000 6.554200 -2.091858 -2.056684 2.683332 1.017905 -2.557518 -5.265559 5.474292 -1.257412 -2.136409 -3.901000 -2.338331 -11.382381 1.976583 -2.856112 5.300093 0.920400 -1.598500 5.578900 4.938940 3.386129 -0.235894 -89.139505 -28.779949 17.393308 43.214929 -54.024812 -19.548948 -2.878363 2.278094 -58.046926 21.898945 48.377841 15.482400 -7.125000 0.000000 0.000000 -31.008700 74.792100 -22.275400 -2.715938 -3.919128 -1.603394 69.927346 23.784977 35.763975 -66.839745 59.357367 -42.318055 -0.490505 0.027238 -2.538738 -16.550961 -30.282524 8.294000 7.125000 0.000000 0.000000 17.847900 -60.513800 -6.879300 
32.925859 17.675947 6.809756 -87.123230 -87.863363 95.216615 -2.099265 -1.050611 -0.094812 -18.283011 -4.095870 -2.150152 -0.645374 4.313339 10.822065 0.753655 -1.492579 -0.293139 0.009800 -0.639400 -1.757000 1.189194 1.972054 -2.415368 16.296546 3.172307 -35.409296 -4.105212 -13.598964 38.496754 3.973569 -20.306499 -4.025500 -0.148100 -2.480300 6.835100 -2.190563 -2.099306 2.732208 1.041377 -2.615027 -5.296041 5.623695 -1.284855 -2.227108 -3.982295 -2.438905 -11.498427 2.102892 -2.962003 4.837381 0.972100 -1.639600 5.448600 4.964708 3.388101 -0.239723 -89.347324 -28.677901 17.746893 42.306034 -53.621871 -18.954796 -2.841423 2.418898 -56.237753 22.116171 48.744579 15.712000 -7.125000 0.000000 0.000000 -31.558700 75.104700 -22.889000 -2.719459 -3.924087 -1.611304 70.268835 23.440385 35.625303 -66.832095 59.360515 -42.316951 -0.501670 0.026085 -2.449655 -17.339957 -30.179475 8.687700 7.125000 0.000000 0.000000 16.934900 -60.606100 -6.552400 
32.793621 17.659091 6.813468 -82.671153 -87.926874 90.969464 -2.097483 -1.077841 -0.092267 -18.395571 -3.984207 -1.917498 -0.638977 4.308627 10.836261 0.803214 -1.757627 -0.623031 0.008200 -0.585800 -1.609700 1.215635 1.956349 -2.415778 16.225017 3.350516 -35.525027 -3.478869 -12.848179 35.727434 4.014771 -20.537708 -3.238097 -0.162000 -2.593400 7.148800 -2.265315 -2.158802 2.705459 1.063244 -2.689507 -5.315876 5.746038 -1.327114 -2.256307 -4.066136 -2.533364 -11.552147 2.251539 -3.060199 4.314138 1.035600 -1.675600 5.279000 4.985594 3.389222 -0.235558 -89.529186 -28.454777 18.065409 41.810091 -53.418192 -18.634925 -2.797728 2.529140 -54.713512 22.336760 48.900670 15.899100 -7.125000 0.000000 0.000000 -31.615400 75.272500 -23.039700 -2.723543 -3.931162 -1.615928 70.641567 23.075378 35.383953 -67.020343 59.408455 -42.484346 -0.511486 0.021506 -2.413780 -18.072728 -30.207899 9.086000 7.125000 0.000000 0.000000 16.170600 -60.809100 -6.325600 
32.659276 17.641634 6.816478 -77.042553 -87.971720 85.566477 -2.101053 -1.118704 -0.098423 -18.493153 -3.879848 -1.683045 -0.632844 4.299804 10.843525 0.854903 -2.028922 -0.948481 0.007000 -0.540600 -1.485600 1.239280 1.929186 -2.415507 16.149901 3.557657 -35.571162 -2.871983 -12.042941 32.867839 4.039557 -20.759385 -2.226987 -0.174100 -2.687900 7.411000 -2.323580 -2.228851 2.602716 1.081002 -2.771016 -5.311606 5.836301 -1.380596 -2.178991 -4.143674 -2.629922 -11.654607 2.418929 -3.159371 3.765446 1.105500 -1.710300 5.105600 5.001763 3.394231 -0.226742 -89.718881 -28.222562 18.311867 41.640037 -53.373807 -18.521464 -2.748305 2.606657 -53.539251 22.469734 48.578138 15.900100 -7.125000 0.000000 0.000000 -30.594300 75.057700 -22.131100 -2.730165 -3.943707 -1.616948 71.030862 22.759124 35.024520 -67.348398 59.488634 -42.772855 -0.519276 0.013710 -2.490826 -18.750157 -30.351804 9.489400 7.125000 0.000000 0.000000 15.540400 -61.110100 -6.183300 
32.522523 17.623373 6.818685 -70.279463 -87.993608 79.042914 -2.115856 -1.173033 -0.110099 -18.575241 -3.775077 -1.444831 -0.626620 4.288016 10.846699 0.908616 -2.306298 -1.270070 0.006000 -0.500500 -1.375400 1.254344 1.889029 -2.413085 16.057399 3.823786 -35.534460 -2.294819 -11.190274 29.951775 4.041883 -20.947397 -1.110535 -0.186900 -2.784000 7.678000 -2.371956 -2.310430 2.450694 1.094822 -2.861502 -5.295823 5.895292 -1.444788 -2.045615 -4.202523 -2.721373 -11.770340 2.589494 -3.254554 3.206674 1.174100 -1.742900 4.928200 5.013133 3.397950 -0.213399 -89.905332 -27.935751 18.478345 41.773913 -53.479578 -18.604838 -2.713095 2.642776 -52.781013 22.447735 48.213841 15.785900 -7.125000 0.000000 0.000000 -29.705300 74.762700 -21.283000 -2.736864 -3.959890 -1.616534 71.427929 22.448138 34.585064 -67.797912 59.595036 -43.165975 -0.524674 0.003648 -2.709086 -19.339364 -30.567783 9.870100 7.125000 0.000000 0.000000 15.050500 -61.460400 -6.108400 
32.383262 17.604410 6.820291 -62.737649 -87.998663 71.746972 -2.147376 -1.237177 -0.122881 -18.649133 -3.637396 -1.208849 -0.620413 4.273860 10.843640 0.966569 -2.602431 -1.582523 0.004900 -0.453500 -1.246000 1.254654 1.838682 -2.409723 15.926253 4.172812 -35.402793 -1.757198 -10.298600 27.015469 4.020197 -21.079139 -0.006254 -0.194300 -2.838900 7.830400 -2.428494 -2.399766 2.267780 1.103715 -2.957059 -5.275527 5.928218 -1.515177 -1.885780 -4.244209 -2.805176 -11.884188 2.759937 -3.343033 2.662416 1.240600 -1.772600 4.754000 5.020319 3.400202 -0.197265 -90.092937 -27.604861 18.552917 42.139306 -53.695201 -18.837774 -2.694222 2.643452 -52.386238 22.260238 47.844268 15.558900 -7.125000 0.000000 0.000000 -29.050500 74.410900 -20.584900 -2.743180 -3.978016 -1.615709 71.828290 22.123514 34.092869 -68.320668 59.716024 -43.622104 -0.527896 -0.007753 -3.049254 -19.843698 -30.824332 10.221500 7.125000 0.000000 0.000000 14.678000 -61.831300 -6.082500 
32.241291 17.584745 6.821093 -54.576843 -87.987572 63.828991 -2.201709 -1.305794 -0.129434 -18.715678 -3.452161 -0.978228 -0.614572 4.256861 10.830868 1.028875 -2.919346 -1.874992 0.003800 -0.399400 -1.097400 1.234362 1.780253 -2.403424 15.738488 4.629793 -35.167387 -1.268641 -9.380612 24.105484 3.977599 -21.128418 0.939001 -0.192600 -2.826000 7.794600 -2.512992 -2.494253 2.120128 1.112799 -3.058702 -5.275962 5.965231 -1.586365 -1.802380 -4.280883 -2.875716 -11.957047 2.919115 -3.417720 2.167719 1.302800 -1.797700 4.592700 5.025630 3.394805 -0.181049 -90.299811 -27.186665 18.533151 42.668204 -53.982587 -19.176694 -2.690310 2.618892 -52.256155 21.942627 47.515466 15.256800 -7.125000 0.000000 0.000000 -28.680700 74.049500 -20.097900 -2.745129 -3.993113 -1.618363 72.205337 21.709247 33.585336 -68.898691 59.844010 -44.124447 -0.529284 -0.019395 -3.483833 -20.251608 -31.093033 10.527600 7.125000 0.000000 0.000000 14.418300 -62.191700 -6.095200 
